# xmcd
#
# Track frame offsets:
#	150
#	25451
#	39048
#	58617
#	78190
#	91783
#	119663
#	138768
#	153984
#	173089
#	195595
#	215716
#	231177
#
# Disc length: 3247 seconds
#
# Revision: 0
# Processed by: cddbd v1.5.2PL0 Copyright (c) Steve Scherf et al.
# Submitted via: dBpowerAMP V4.0
#
DISCID=a20cad0d
DTITLE=Sinead O'Connor - Faith and Courage
DYEAR=1900
DGENRE=Blues
TTITLE0=The healing room
TTITLE1=No man's woman
TTITLE2=Jealous
TTITLE3=Dancing lessons
TTITLE4=Daddy I'm fine
TTITLE5='Til I whisper U something
TTITLE6=Hold back the night
TTITLE7=What doesn't belong to me
TTITLE8=The state I'm in
TTITLE9=The lamb's book of life
TTITLE10=If U ever
TTITLE11=Emma's song
TTITLE12=Kyrie Eleison
EXTD=
EXTT0=
EXTT1=
EXTT2=
EXTT3=
EXTT4=
EXTT5=
EXTT6=
EXTT7=
EXTT8=
EXTT9=
EXTT10=
EXTT11=
EXTT12=
PLAYORDER=
